<?xml version="1.0" encoding="UTF-8"?>
<svg width="48px" height="48px" viewBox="0 0 48 48" version="1.1" xmlns="http://www.w3.org/2000/svg" xmlns:xlink="http://www.w3.org/1999/xlink">
    <title>Bank Transfer</title>
    <g id="Bank-Transfer" stroke="none" stroke-width="1" fill="none" fill-rule="evenodd">
        <rect id="Background" fill="#F5F5F7" x="0" y="0" width="48" height="48" rx="12"></rect>
        <g id="Bank" transform="translate(8.000000, 8.000000)" fill="#007AFF" fill-rule="nonzero">
            <path d="M30,24 L30,28 C30,29.1045695 29.1045695,30 28,30 L4,30 C2.8954305,30 2,29.1045695 2,28 L2,24 L30,24 Z M16,0 L32,10 L32,12 L0,12 L0,10 L16,0 Z M4,14 L28,14 C29.1045695,14 30,14.8954305 30,16 L30,22 L2,22 L2,16 C2,14.8954305 2.8954305,14 4,14 Z M12,18 C12,19.1045695 11.1045695,20 10,20 C8.8954305,20 8,19.1045695 8,18 C8,16.8954305 8.8954305,16 10,16 C11.1045695,16 12,16.8954305 12,18 Z M24,18 C24,19.1045695 23.1045695,20 22,20 C20.8954305,20 20,19.1045695 20,18 C20,16.8954305 20.8954305,16 22,16 C23.1045695,16 24,16.8954305 24,18 Z" id="Shape"></path>
        </g>
    </g>
</svg>
