<?xml version="1.0" encoding="UTF-8"?>
<svg width="48px" height="48px" viewBox="0 0 48 48" version="1.1" xmlns="http://www.w3.org/2000/svg" xmlns:xlink="http://www.w3.org/1999/xlink">
    <title>Crypto</title>
    <g id="Crypto" stroke="none" stroke-width="1" fill="none" fill-rule="evenodd">
        <rect id="Background" fill="#F5F5F7" x="0" y="0" width="48" height="48" rx="12"></rect>
        <g id="bitcoin" transform="translate(10.000000, 8.000000)" fill="#F7931A" fill-rule="nonzero">
            <path d="M27.6923077,16.6153846 C27.1153846,21.1538462 22.8846154,24.2307692 18.3461538,23.6538462 C13.8076923,23.0769231 10.7307692,18.8461538 11.3076923,14.3076923 C11.8846154,9.76923077 16.1153846,6.69230769 20.6538462,7.26923077 C25.1923077,7.84615385 28.2692308,12.0769231 27.6923077,16.6153846 Z M20.0769231,17.7692308 L21.8076923,11.5 L19.5,11.5 L17.7692308,17.7692308 L20.0769231,17.7692308 Z M16.0384615,17.7692308 L17.7692308,11.5 L15.4615385,11.5 L13.7307692,17.7692308 L16.0384615,17.7692308 Z M21.2307692,19.5 L16.0384615,19.5 L15.4615385,21.8076923 L20.6538462,21.8076923 L21.2307692,19.5 Z M24.6153846,11.5 L22.3846154,11.5 L20.6538462,17.7692308 L22.8846154,17.7692308 L24.6153846,11.5 Z M25.1923077,19.5 L22.3846154,19.5 L21.8076923,21.8076923 L24.6153846,21.8076923 L25.1923077,19.5 Z M19.5,0 C8.65384615,0 0,8.65384615 0,19.5 C0,30.3461538 8.65384615,39 19.5,39 C30.3461538,39 39,30.3461538 39,19.5 C39,8.65384615 30.3461538,0 19.5,0 Z M19.5,32.0769231 C12.5769231,32.0769231 6.92307692,26.4230769 6.92307692,19.5 C6.92307692,12.5769231 12.5769231,6.92307692 19.5,6.92307692 C26.4230769,6.92307692 32.0769231,12.5769231 32.0769231,19.5 C32.0769231,26.4230769 26.4230769,32.0769231 19.5,32.0769231 Z" id="Shape"></path>
        </g>
    </g>
</svg>
