<svg xmlns="http://www.w3.org/2000/svg" viewBox="0 0 1000 618">
  <path fill="#FF5F00" d="M380.2,309c0-99.7,46.8-188.3,119.8-245.9c-53.2-41.9-120.6-67-193.9-67C137.2-3.9,0,133.3,0,309s137.2,313,306.1,313c73.3,0,140.7-25.1,193.9-67C427,497.3,380.2,408.7,380.2,309z"/>
  <path fill="#EB001B" d="M380.2,309c0,99.7,46.8,188.3,119.8,245.9c73-57.6,119.8-146.2,119.8-245.9S573,120.7,500,63.1C427,120.7,380.2,209.3,380.2,309z"/>
  <path fill="#F79E1B" d="M1000,309c0,175.7-137.2,313-306.1,313c-73.3,0-140.7-25.1-193.9-67c73-57.6,119.8-146.2,119.8-245.9S573,120.7,500,63.1C553.2,21.2,620.6-3.9,693.9-3.9C862.8-3.9,1000,133.3,1000,309z"/>
</svg>
