<?xml version="1.0" encoding="UTF-8"?>
<svg width="48px" height="48px" viewBox="0 0 48 48" version="1.1" xmlns="http://www.w3.org/2000/svg" xmlns:xlink="http://www.w3.org/1999/xlink">
    <title>Mobile Money</title>
    <g id="Mobile-Money" stroke="none" stroke-width="1" fill="none" fill-rule="evenodd">
        <rect id="Background" fill="#FFCC00" x="0" y="0" width="48" height="48" rx="8"></rect>
        <g id="Mobile-Phone" transform="translate(12.000000, 6.000000)" fill="#000000" fill-rule="nonzero">
            <path d="M18,0 L6,0 C3.79,0 2,1.79 2,4 L2,36 C2,38.21 3.79,40 6,40 L18,40 C20.21,40 22,38.21 22,36 L22,4 C22,1.79 20.21,0 18,0 Z M12,38 C10.34,38 9,36.66 9,35 C9,33.34 10.34,32 12,32 C13.66,32 15,33.34 15,35 C15,36.66 13.66,38 12,38 Z M19,28 L5,28 L5,8 L19,8 L19,28 Z" id="Shape"></path>
        </g>
        <g id="Money" transform="translate(14.000000, 16.000000)" fill="#008000" fill-rule="nonzero">
            <path d="M10,0 C4.48,0 0,4.48 0,10 C0,15.52 4.48,20 10,20 C15.52,20 20,15.52 20,10 C20,4.48 15.52,0 10,0 Z M10,18 C5.59,18 2,14.41 2,10 C2,5.59 5.59,2 10,2 C14.41,2 18,5.59 18,10 C18,14.41 14.41,18 10,18 Z" id="Shape"></path>
            <path d="M10.5,5 L9,5 L9,11 L13.5,13.5 L14.5,12 L10.5,10 L10.5,5 Z" id="Path"></path>
        </g>
    </g>
</svg>
