<svg xmlns="http://www.w3.org/2000/svg" viewBox="0 0 1000 296">
  <path fill="#253B80" d="M66.4,0H293.7c14.3,0,27.6,7.4,35.1,19.5l5.9,9.5c25.1,40.5,25.1,91.3,0,131.8l-86.9,140.3c-7.5,12.1-20.8,19.5-35.1,19.5H66.4c-22.8,0-37.1-24.6-25.9-44.5L127.4,44.5C134.9,32.4,148.2,0,162.5,0H66.4z"/>
  <path fill="#179BD7" d="M306.5,0h227.3c14.3,0,27.6,7.4,35.1,19.5l5.9,9.5c25.1,40.5,25.1,91.3,0,131.8l-86.9,140.3c-7.5,12.1-20.8,19.5-35.1,19.5H306.5c-22.8,0-37.1-24.6-25.9-44.5L367.5,44.5C375,32.4,388.3,0,402.6,0H306.5z"/>
  <path fill="#222D65" d="M413.2,0h227.3c14.3,0,27.6,7.4,35.1,19.5l5.9,9.5c25.1,40.5,25.1,91.3,0,131.8l-86.9,140.3c-7.5,12.1-20.8,19.5-35.1,19.5H413.2c-22.8,0-37.1-24.6-25.9-44.5L474.2,44.5C481.7,32.4,495,0,509.3,0H413.2z"/>
  <path fill="#253B80" d="M275.4,88.3h-35.9c-2.5,0-4.5,1.8-4.9,4.2l-14.3,90.9c-0.3,1.9,1.2,3.7,3.1,3.7h16.4c2.5,0,4.5-1.8,4.9-4.2l3.9-24.5c0.4-2.4,2.4-4.2,4.9-4.2h11.3c23.4,0,36.9-11.3,40.4-33.8c1.6-9.8,0.1-17.5-4.5-23C295.9,91.5,287.1,88.3,275.4,88.3z M280.9,122.5c-1.9,12.7-11.7,12.7-21.1,12.7h-5.4l3.8-23.8c0.2-1.4,1.4-2.4,2.8-2.4h2.5c6.4,0,12.5,0,15.6,3.7C280.9,115.1,281.6,118.2,280.9,122.5z"/>
  <path fill="#179BD7" d="M484.2,88.1h-35.9c-2.5,0-4.5,1.8-4.9,4.2l-14.3,90.9c-0.3,1.9,1.2,3.7,3.1,3.7h17.2c1.8,0,3.3-1.3,3.6-3.1l4-25.6c0.4-2.4,2.4-4.2,4.9-4.2h11.3c23.4,0,36.9-11.3,40.4-33.8c1.6-9.8,0.1-17.5-4.5-23C504.7,91.3,495.9,88.1,484.2,88.1z M489.7,122.3c-1.9,12.7-11.7,12.7-21.1,12.7h-5.4l3.8-23.8c0.2-1.4,1.4-2.4,2.8-2.4h2.5c6.4,0,12.5,0,15.6,3.7C489.7,114.9,490.4,118,489.7,122.3z"/>
  <path fill="#222D65" d="M593.1,122.1h-17.3c-1.4,0-2.6,1-2.8,2.4l-0.7,4.5l-1.1-1.6c-3.5-5-11.1-6.7-18.8-6.7c-17.6,0-32.6,13.3-35.5,32c-1.5,9.3,0.6,18.2,5.9,24.4c4.9,5.7,11.8,8,20.1,8c14.2,0,22.1-9.1,22.1-9.1l-0.7,4.4c-0.3,1.9,1.2,3.7,3.1,3.7h15.6c2.5,0,4.5-1.8,4.9-4.2l9.2-58.1C597.4,123.8,595.5,122.1,593.1,122.1z M566.5,153.5c-1.5,9.1-8.7,15.3-17.9,15.3c-4.6,0-8.3-1.5-10.6-4.3c-2.3-2.8-3.2-6.7-2.5-11.1c1.5-9,8.7-15.3,17.8-15.3c4.5,0,8.1,1.5,10.5,4.3C566.2,145.2,567.1,149.2,566.5,153.5z"/>
  <path fill="#253B80" d="M385.3,122.1H368c-1.7,0-3.2,0.8-4.1,2.2l-23.9,35.2l-10.1-33.7c-0.6-2.1-2.6-3.6-4.8-3.6h-17c-2.1,0-3.5,2-2.9,4l19.1,56l-18,25.4c-1.4,2,0,4.8,2.4,4.8h17.3c1.7,0,3.2-0.8,4.1-2.1l57.8-83.4C389.1,124.9,387.7,122.1,385.3,122.1z"/>
  <path fill="#179BD7" d="M651.2,88.3l-14.4,91.8c-0.3,1.9,1.2,3.7,3.1,3.7h14.5c2.5,0,4.5-1.8,4.9-4.2l14.2-90.1c0.3-1.9-1.2-3.7-3.1-3.7h-16.2C652.8,85.7,651.5,86.8,651.2,88.3z"/>
</svg>
