<?xml version="1.0" encoding="UTF-8"?>
<svg width="48px" height="48px" viewBox="0 0 48 48" version="1.1" xmlns="http://www.w3.org/2000/svg" xmlns:xlink="http://www.w3.org/1999/xlink">
    <title>Stripe</title>
    <g id="Stripe" stroke="none" stroke-width="1" fill="none" fill-rule="evenodd">
        <rect id="Background" fill="#F5F5F7" x="0" y="0" width="48" height="48" rx="12"></rect>
        <g id="stripe-logo" transform="translate(8.000000, 14.000000)" fill="#635BFF" fill-rule="nonzero">
            <path d="M29.3333333,0 C30.8,0 32,1.2 32,2.66666667 L32,17.3333333 C32,18.8 30.8,20 29.3333333,20 L2.66666667,20 C1.2,20 0,18.8 0,17.3333333 L0,2.66666667 C0,1.2 1.2,0 2.66666667,0 L29.3333333,0 Z M13.3333333,14.6666667 L13.3333333,12.6666667 L12,12.6666667 L12,14.6666667 L10.6666667,14.6666667 L10.6666667,8 L14.6666667,8 C16,8 17.3333333,9.06666667 17.3333333,10.3333333 C17.3333333,11.0666667 16.9333333,11.7333333 16.4,12.1333333 L17.3333333,14.6666667 L15.8666667,14.6666667 L15.0666667,12.6666667 L13.3333333,12.6666667 L13.3333333,14.6666667 Z M13.3333333,9.33333333 L13.3333333,11.3333333 L14.6666667,11.3333333 C15.2,11.3333333 15.7333333,10.9333333 15.7333333,10.3333333 C15.7333333,9.73333333 15.2,9.33333333 14.6666667,9.33333333 L13.3333333,9.33333333 Z M18.6666667,11.3333333 C18.6666667,9.33333333 20.2666667,8 22.4,8 C24.5333333,8 26.1333333,9.33333333 26.1333333,11.3333333 C26.1333333,13.3333333 24.5333333,14.6666667 22.4,14.6666667 C20.2666667,14.6666667 18.6666667,13.3333333 18.6666667,11.3333333 Z M20.2666667,11.3333333 C20.2666667,12.4 21.2,13.3333333 22.4,13.3333333 C23.6,13.3333333 24.5333333,12.4 24.5333333,11.3333333 C24.5333333,10.2666667 23.6,9.33333333 22.4,9.33333333 C21.2,9.33333333 20.2666667,10.2666667 20.2666667,11.3333333 Z M5.86666667,8 L9.33333333,8 C10.6666667,8 11.7333333,8.93333333 11.7333333,10.1333333 C11.7333333,11.0666667 11.0666667,11.7333333 10.1333333,11.8666667 C11.0666667,12 11.7333333,12.6666667 11.7333333,13.6 C11.7333333,14.8 10.6666667,14.6666667 9.33333333,14.6666667 L5.86666667,14.6666667 L5.86666667,8 Z M7.46666667,9.33333333 L7.46666667,10.6666667 L9.33333333,10.6666667 C9.73333333,10.6666667 10.1333333,10.4 10.1333333,10 C10.1333333,9.6 9.73333333,9.33333333 9.33333333,9.33333333 L7.46666667,9.33333333 Z M7.46666667,12 L7.46666667,13.3333333 L9.33333333,13.3333333 C9.73333333,13.3333333 10.1333333,13.0666667 10.1333333,12.6666667 C10.1333333,12.2666667 9.73333333,12 9.33333333,12 L7.46666667,12 Z" id="Shape"></path>
        </g>
    </g>
</svg>
