<svg xmlns="http://www.w3.org/2000/svg" viewBox="0 0 1000 324.68">
  <path fill="#00579F" d="M651.17,0.2H348.83c-166.6,0-301.63,135.03-301.63,301.63v21.63c0,166.6,135.03,301.63,301.63,301.63h302.33c166.6,0,301.63-135.03,301.63-301.63v-21.63C952.8,135.23,817.77,0.2,651.17,0.2z"/>
  <path fill="#FAA61A" d="M116.5,196.18l-70.06-144.8H0v216.04h41.47V121.05l65.9,146.37h50.7V51.38H116.5V196.18z M163.96,267.42h39.1l54.97-216.04h-39.1L163.96,267.42z M241.29,267.42h39.1l54.97-216.04h-39.1L241.29,267.42z M832.62,51.38L773.13,267.42h41.47l11.18-43.04h68.76l11.18,43.04h41.47L887.59,51.38H832.62z M836.78,187.95l28.72-110.56l28.72,110.56H836.78z M603.92,51.38l-33.87,145.3l-33.87-145.3h-43.04l-42.54,216.04h39.1l30.15-153.46l35.44,153.46h29.08l35.44-153.46l30.15,153.46h39.1L646.46,51.38H603.92z M440.68,51.38h-78.01v216.04h78.01c65.9,0,102.41-53.65,102.41-108.06C543.09,105.03,506.58,51.38,440.68,51.38z M440.68,230.99h-38.54V87.81h38.54c39.1,0,63.27,31.73,63.27,71.59C503.95,199.26,479.78,230.99,440.68,230.99z"/>
</svg>
